ply
format ascii 1.0
comment Created by Blender 2.79 (sub 0) - www.blender.org, source file: ''
element vertex 226
property float x
property float y
property float z
element face 448
property list uchar uint vertex_indices
end_header
-0.506616 -0.113983 -0.494953
-0.506616 0.136017 -0.244953
-0.506616 0.136017 -0.494953
-0.506616 -0.113983 -0.244953
-0.506616 0.136017 0.005047
-0.506616 -0.363983 -0.494953
-0.506616 -0.363983 -0.244953
-0.506616 -0.113983 0.005047
-0.506616 0.386017 -0.494953
-0.506616 0.386017 -0.244953
-0.506616 0.636017 -0.494953
-0.506616 0.386017 0.005047
-0.506616 0.636017 -0.244953
-0.506616 0.136017 -0.744953
-0.506616 0.386017 -0.744953
-0.506616 0.136017 -0.994953
-0.506616 0.636017 -0.744953
-0.506616 0.386017 -0.994953
-0.506616 -0.113983 -0.744953
-0.506616 -0.113983 -0.994953
-0.506616 -0.363983 -0.744953
-0.006616 -0.113983 -0.994953
-0.256616 0.136017 -0.994953
-0.006616 0.136017 -0.994953
-0.256616 -0.113983 -0.994953
-0.006616 -0.363983 -0.994953
-0.256616 -0.363983 -0.994953
-0.006616 0.386017 -0.994953
-0.256616 0.386017 -0.994953
-0.006616 0.636017 -0.994953
-0.256616 0.636017 -0.994953
0.243384 0.136017 -0.994953
0.243384 0.386017 -0.994953
0.493384 0.136017 -0.994953
0.243384 0.636017 -0.994953
0.493384 0.386017 -0.994953
0.243384 -0.113983 -0.994953
0.493384 -0.113983 -0.994953
0.243384 -0.363983 -0.994953
0.493384 -0.113983 0.505047
0.493384 0.136017 0.255047
0.493384 0.136017 0.505047
0.493384 -0.113983 0.255047
0.493384 0.136017 0.005047
0.493384 -0.363983 0.505047
0.493384 -0.363983 0.255047
0.493384 -0.113983 0.005047
0.493384 0.386017 0.505047
0.493384 0.386017 0.255047
0.493384 0.636017 0.505047
0.493384 0.386017 0.005047
0.493384 0.636017 0.255047
0.493384 0.136017 0.755047
0.493384 0.386017 0.755047
0.493384 0.136017 1.005047
0.493384 0.636017 0.755047
0.493384 0.386017 1.005047
0.493384 -0.113983 0.755047
0.493384 -0.113983 1.005047
0.493384 -0.363983 0.755047
-0.006616 -0.113983 1.005047
0.243384 0.136017 1.005047
-0.006616 0.136017 1.005047
0.243384 -0.113983 1.005047
-0.006616 -0.363983 1.005047
0.243384 -0.363983 1.005047
-0.006616 0.386017 1.005047
0.243384 0.386017 1.005047
-0.006616 0.636017 1.005047
0.243384 0.636017 1.005047
-0.256616 0.136017 1.005047
-0.256616 0.386017 1.005047
-0.506616 0.136017 1.005047
-0.256616 0.636017 1.005047
-0.506616 0.386017 1.005047
-0.256616 -0.113983 1.005047
-0.506616 -0.113983 1.005047
-0.256616 -0.363983 1.005047
-0.256616 -0.363983 0.505047
-0.006616 -0.363983 0.255047
-0.006616 -0.363983 0.505047
-0.256616 -0.363983 0.255047
-0.006616 -0.363983 0.005047
-0.506616 -0.363983 0.505047
-0.506616 -0.363983 0.255047
-0.256616 -0.363983 0.005047
0.243384 -0.363983 0.505047
0.243384 -0.363983 0.255047
0.243384 -0.363983 0.005047
-0.006616 -0.363983 0.755047
0.243384 -0.363983 0.755047
-0.256616 -0.363983 0.755047
-0.506616 -0.363983 0.755047
0.493384 1.136017 0.755047
0.493384 0.886017 0.505047
0.493384 1.136017 0.505047
0.493384 0.886017 0.755047
0.493384 1.136017 1.005047
0.493384 0.886017 1.005047
0.493384 1.136017 0.255047
0.493384 0.886017 0.255047
0.493384 1.136017 0.005047
0.493384 0.886017 0.005047
0.493384 1.386017 0.505047
0.493384 1.386017 0.255047
0.493384 1.636017 0.505047
0.493384 1.386017 0.005047
0.493384 1.636017 0.255047
0.493384 1.386017 0.755047
0.493384 1.636017 0.755047
0.493384 1.386017 1.005047
0.243384 0.636017 -0.494953
-0.006616 0.636017 -0.744953
-0.006616 0.636017 -0.494953
0.243384 0.636017 -0.744953
0.493384 0.636017 -0.494953
0.493384 0.636017 -0.744953
-0.256616 0.636017 -0.494953
-0.256616 0.636017 -0.744953
-0.006616 0.636017 -0.244953
-0.256616 0.636017 -0.244953
-0.006616 0.636017 0.005047
-0.256616 0.636017 0.005047
0.243384 0.636017 -0.244953
0.243384 0.636017 0.005047
0.493384 0.636017 -0.244953
-0.256616 -0.363983 -0.494953
-0.006616 -0.363983 -0.744953
-0.006616 -0.363983 -0.494953
-0.256616 -0.363983 -0.744953
0.243384 -0.363983 -0.494953
0.243384 -0.363983 -0.744953
0.493384 -0.363983 -0.494953
0.493384 -0.363983 -0.744953
-0.006616 -0.363983 -0.244953
0.243384 -0.363983 -0.244953
0.493384 -0.363983 -0.244953
-0.256616 -0.363983 -0.244953
0.493384 -0.113983 -0.494953
0.493384 0.136017 -0.744953
0.493384 0.136017 -0.494953
0.493384 -0.113983 -0.744953
0.493384 0.386017 -0.494953
0.493384 0.386017 -0.744953
0.493384 0.136017 -0.244953
0.493384 0.386017 -0.244953
0.493384 -0.113983 -0.244953
-0.506616 -0.113983 0.505047
-0.506616 0.136017 0.755047
-0.506616 0.136017 0.505047
-0.506616 -0.113983 0.755047
-0.506616 0.386017 0.505047
-0.506616 0.386017 0.755047
-0.506616 0.636017 0.505047
-0.506616 0.636017 0.755047
-0.506616 0.136017 0.255047
-0.506616 0.386017 0.255047
-0.506616 0.636017 0.255047
-0.506616 -0.113983 0.255047
0.243384 1.636017 0.505047
-0.006616 1.636017 0.255047
-0.006616 1.636017 0.505047
0.243384 1.636017 0.255047
-0.006616 1.636017 0.005047
0.243384 1.636017 0.005047
-0.256616 1.636017 0.505047
-0.256616 1.636017 0.255047
-0.506616 1.636017 0.505047
-0.256616 1.636017 0.005047
-0.506616 1.636017 0.255047
-0.006616 1.636017 0.755047
-0.256616 1.636017 0.755047
-0.006616 1.636017 1.005047
-0.506616 1.636017 0.755047
-0.256616 1.636017 1.005047
0.243384 1.636017 0.755047
0.243384 1.636017 1.005047
-0.506616 1.136017 0.255047
-0.506616 0.886017 0.505047
-0.506616 1.136017 0.505047
-0.506616 0.886017 0.255047
-0.506616 1.136017 0.005047
-0.506616 0.886017 0.005047
-0.506616 1.136017 0.755047
-0.506616 0.886017 0.755047
-0.506616 1.136017 1.005047
-0.506616 0.886017 1.005047
-0.506616 1.386017 0.505047
-0.506616 1.386017 0.755047
-0.506616 1.386017 1.005047
-0.506616 1.386017 0.255047
-0.506616 1.386017 0.005047
-0.256616 1.136017 1.005047
-0.006616 0.886017 1.005047
-0.006616 1.136017 1.005047
-0.256616 0.886017 1.005047
0.243384 1.136017 1.005047
0.243384 0.886017 1.005047
-0.006616 1.386017 1.005047
0.243384 1.386017 1.005047
-0.256616 1.386017 1.005047
0.243384 1.136017 0.005047
-0.006616 0.886017 0.005047
-0.006616 1.136017 0.005047
0.243384 0.886017 0.005047
-0.256616 1.136017 0.005047
-0.256616 0.886017 0.005047
-0.006616 1.386017 0.005047
-0.256616 1.386017 0.005047
0.243384 1.386017 0.005047
-0.506616 -0.363983 0.005047
-0.506616 0.636017 0.005047
-0.506616 0.636017 -0.994953
-0.506616 -0.363983 -0.994953
0.493384 0.636017 -0.994953
0.493384 -0.363983 -0.994953
0.493384 -0.363983 0.005047
0.493384 0.636017 0.005047
0.493384 0.636017 1.005047
0.493384 -0.363983 1.005047
-0.506616 0.636017 1.005047
-0.506616 -0.363983 1.005047
0.493384 1.636017 0.005047
0.493384 1.636017 1.005047
-0.506616 1.636017 0.005047
-0.506616 1.636017 1.005047
3 0 1 2
3 3 4 1
3 5 3 0
3 6 7 3
3 1 8 2
3 9 10 8
3 4 9 1
3 11 12 9
3 8 13 2
3 14 15 13
3 10 14 8
3 16 17 14
3 13 0 2
3 18 5 0
3 15 18 13
3 19 20 18
3 21 22 23
3 24 15 22
3 25 24 21
3 26 19 24
3 22 27 23
3 28 29 27
3 15 28 22
3 17 30 28
3 27 31 23
3 32 33 31
3 29 32 27
3 34 35 32
3 31 21 23
3 36 25 21
3 33 36 31
3 37 38 36
3 39 40 41
3 42 43 40
3 44 42 39
3 45 46 42
3 40 47 41
3 48 49 47
3 43 48 40
3 50 51 48
3 47 52 41
3 53 54 52
3 49 53 47
3 55 56 53
3 52 39 41
3 57 44 39
3 54 57 52
3 58 59 57
3 60 61 62
3 63 54 61
3 64 63 60
3 65 58 63
3 61 66 62
3 67 68 66
3 54 67 61
3 56 69 67
3 66 70 62
3 71 72 70
3 68 71 66
3 73 74 71
3 70 60 62
3 75 64 60
3 72 75 70
3 76 77 75
3 78 79 80
3 81 82 79
3 83 81 78
3 84 85 81
3 79 86 80
3 87 44 86
3 82 87 79
3 88 45 87
3 86 89 80
3 90 64 89
3 44 90 86
3 59 65 90
3 89 78 80
3 91 83 78
3 64 91 89
3 77 92 91
3 93 94 95
3 96 49 94
3 97 96 93
3 98 55 96
3 94 99 95
3 100 101 99
3 49 100 94
3 51 102 100
3 99 103 95
3 104 105 103
3 101 104 99
3 106 107 104
3 103 93 95
3 108 97 93
3 105 108 103
3 109 110 108
3 111 112 113
3 114 29 112
3 115 114 111
3 116 34 114
3 112 117 113
3 118 10 117
3 29 118 112
3 30 16 118
3 117 119 113
3 120 121 119
3 10 120 117
3 12 122 120
3 119 111 113
3 123 115 111
3 121 123 119
3 124 125 123
3 126 127 128
3 129 25 127
3 5 129 126
3 20 26 129
3 127 130 128
3 131 132 130
3 25 131 127
3 38 133 131
3 130 134 128
3 135 82 134
3 132 135 130
3 136 88 135
3 134 126 128
3 137 5 126
3 82 137 134
3 85 6 137
3 138 139 140
3 141 33 139
3 132 141 138
3 133 37 141
3 139 142 140
3 143 115 142
3 33 143 139
3 35 116 143
3 142 144 140
3 145 43 144
3 115 145 142
3 125 50 145
3 144 138 140
3 146 132 138
3 43 146 144
3 46 136 146
3 147 148 149
3 150 72 148
3 83 150 147
3 92 76 150
3 148 151 149
3 152 153 151
3 72 152 148
3 74 154 152
3 151 155 149
3 156 4 155
3 153 156 151
3 157 11 156
3 155 147 149
3 158 83 147
3 4 158 155
3 7 84 158
3 159 160 161
3 162 163 160
3 105 162 159
3 107 164 162
3 160 165 161
3 166 167 165
3 163 166 160
3 168 169 166
3 165 170 161
3 171 172 170
3 167 171 165
3 173 174 171
3 170 159 161
3 175 105 159
3 172 175 170
3 176 109 175
3 177 178 179
3 180 153 178
3 181 180 177
3 182 157 180
3 178 183 179
3 184 185 183
3 153 184 178
3 154 186 184
3 183 187 179
3 188 167 187
3 185 188 183
3 189 173 188
3 187 177 179
3 190 181 177
3 167 190 187
3 169 191 190
3 192 193 194
3 195 68 193
3 185 195 192
3 186 73 195
3 193 196 194
3 197 97 196
3 68 197 193
3 69 98 197
3 196 198 194
3 199 172 198
3 97 199 196
3 110 176 199
3 198 192 194
3 200 185 192
3 172 200 198
3 174 189 200
3 201 202 203
3 204 121 202
3 101 204 201
3 102 124 204
3 202 205 203
3 206 181 205
3 121 206 202
3 122 182 206
3 205 207 203
3 208 163 207
3 181 208 205
3 191 168 208
3 207 201 203
3 209 101 201
3 163 209 207
3 164 106 209
3 0 3 1
3 3 7 4
3 5 6 3
3 6 210 7
3 1 9 8
3 9 12 10
3 4 11 9
3 11 211 12
3 8 14 13
3 14 17 15
3 10 16 14
3 16 212 17
3 13 18 0
3 18 20 5
3 15 19 18
3 19 213 20
3 21 24 22
3 24 19 15
3 25 26 24
3 26 213 19
3 22 28 27
3 28 30 29
3 15 17 28
3 17 212 30
3 27 32 31
3 32 35 33
3 29 34 32
3 34 214 35
3 31 36 21
3 36 38 25
3 33 37 36
3 37 215 38
3 39 42 40
3 42 46 43
3 44 45 42
3 45 216 46
3 40 48 47
3 48 51 49
3 43 50 48
3 50 217 51
3 47 53 52
3 53 56 54
3 49 55 53
3 55 218 56
3 52 57 39
3 57 59 44
3 54 58 57
3 58 219 59
3 60 63 61
3 63 58 54
3 64 65 63
3 65 219 58
3 61 67 66
3 67 69 68
3 54 56 67
3 56 218 69
3 66 71 70
3 71 74 72
3 68 73 71
3 73 220 74
3 70 75 60
3 75 77 64
3 72 76 75
3 76 221 77
3 78 81 79
3 81 85 82
3 83 84 81
3 84 210 85
3 79 87 86
3 87 45 44
3 82 88 87
3 88 216 45
3 86 90 89
3 90 65 64
3 44 59 90
3 59 219 65
3 89 91 78
3 91 92 83
3 64 77 91
3 77 221 92
3 93 96 94
3 96 55 49
3 97 98 96
3 98 218 55
3 94 100 99
3 100 102 101
3 49 51 100
3 51 217 102
3 99 104 103
3 104 107 105
3 101 106 104
3 106 222 107
3 103 108 93
3 108 110 97
3 105 109 108
3 109 223 110
3 111 114 112
3 114 34 29
3 115 116 114
3 116 214 34
3 112 118 117
3 118 16 10
3 29 30 118
3 30 212 16
3 117 120 119
3 120 122 121
3 10 12 120
3 12 211 122
3 119 123 111
3 123 125 115
3 121 124 123
3 124 217 125
3 126 129 127
3 129 26 25
3 5 20 129
3 20 213 26
3 127 131 130
3 131 133 132
3 25 38 131
3 38 215 133
3 130 135 134
3 135 88 82
3 132 136 135
3 136 216 88
3 134 137 126
3 137 6 5
3 82 85 137
3 85 210 6
3 138 141 139
3 141 37 33
3 132 133 141
3 133 215 37
3 139 143 142
3 143 116 115
3 33 35 143
3 35 214 116
3 142 145 144
3 145 50 43
3 115 125 145
3 125 217 50
3 144 146 138
3 146 136 132
3 43 46 146
3 46 216 136
3 147 150 148
3 150 76 72
3 83 92 150
3 92 221 76
3 148 152 151
3 152 154 153
3 72 74 152
3 74 220 154
3 151 156 155
3 156 11 4
3 153 157 156
3 157 211 11
3 155 158 147
3 158 84 83
3 4 7 158
3 7 210 84
3 159 162 160
3 162 164 163
3 105 107 162
3 107 222 164
3 160 166 165
3 166 169 167
3 163 168 166
3 168 224 169
3 165 171 170
3 171 174 172
3 167 173 171
3 173 225 174
3 170 175 159
3 175 109 105
3 172 176 175
3 176 223 109
3 177 180 178
3 180 157 153
3 181 182 180
3 182 211 157
3 178 184 183
3 184 186 185
3 153 154 184
3 154 220 186
3 183 188 187
3 188 173 167
3 185 189 188
3 189 225 173
3 187 190 177
3 190 191 181
3 167 169 190
3 169 224 191
3 192 195 193
3 195 73 68
3 185 186 195
3 186 220 73
3 193 197 196
3 197 98 97
3 68 69 197
3 69 218 98
3 196 199 198
3 199 176 172
3 97 110 199
3 110 223 176
3 198 200 192
3 200 189 185
3 172 174 200
3 174 225 189
3 201 204 202
3 204 124 121
3 101 102 204
3 102 217 124
3 202 206 205
3 206 182 181
3 121 122 206
3 122 211 182
3 205 208 207
3 208 168 163
3 181 191 208
3 191 224 168
3 207 209 201
3 209 106 101
3 163 164 209
3 164 222 106
