ply
format ascii 1.0
comment Created by Blender 2.79 (sub 0) - www.blender.org, source file: ''
element vertex 174
property float x
property float y
property float z
element face 344
property list uchar uint vertex_indices
end_header
-0.006616 -0.346826 -0.194953
0.134805 -0.787726 -0.136374
-0.006616 -0.911470 -0.194953
0.134805 -4.863982 0.146469
-0.148038 -4.863982 0.146469
-0.148038 -4.863982 -0.136374
-0.148038 -0.787726 -0.136374
0.134805 -0.205404 -0.136374
0.193384 -0.488983 0.005047
0.134805 0.077439 0.146469
0.134805 -0.540239 0.146469
-0.006616 0.053174 0.205047
-0.006616 -0.561470 0.205047
-0.148038 -0.540239 0.146469
-0.148038 0.077438 0.146469
-0.206616 -0.488983 0.005047
-0.148038 -0.205404 -0.136374
-0.006616 3.906727 -0.194953
0.134805 5.136017 -0.136374
0.134805 3.900661 -0.136374
-0.148038 5.136017 -0.136374
-0.148038 3.900661 -0.136374
-0.206616 5.136017 0.005047
-0.006616 5.136017 0.205047
-0.006616 5.136017 -0.194953
0.193384 5.136017 0.005047
0.193384 3.886017 0.005047
-0.206616 3.886017 0.005047
-0.148038 3.971372 0.146469
-0.006616 4.006728 0.205047
-0.148038 5.136017 0.146469
0.134805 5.136017 0.146469
0.134805 3.971372 0.146469
-0.006616 0.218860 -0.194953
0.134805 -0.242169 -0.573138
-0.006616 -0.215760 -0.629572
-0.006616 -3.540938 -3.389065
-0.148038 -3.499516 -3.430486
-0.148038 -3.299516 -3.630486
-0.148038 -0.242169 -0.573138
0.134805 0.194595 -0.136374
0.193384 -0.305925 -0.436894
0.134805 -0.617168 -0.548138
-0.006616 -0.746090 -0.594217
-0.148038 -0.617168 -0.548138
-0.206616 -0.305925 -0.436894
-0.148038 0.194595 -0.136374
-0.006616 3.812972 3.399160
0.134805 2.948022 2.617053
-0.006616 3.014444 2.600632
-0.148038 2.948022 2.617053
-0.148038 3.571550 3.640581
-0.006616 3.530129 3.682002
-0.148038 3.771550 3.440581
0.134805 3.771550 3.440581
0.193384 2.787667 2.656698
-0.206616 2.787667 2.656698
-0.148038 2.698022 2.767053
-0.206616 3.671550 3.540581
-0.006616 2.660890 2.812764
0.134805 3.571550 3.640581
0.134805 2.698022 2.767053
0.193384 3.671550 3.540581
0.193384 1.386017 0.005047
0.134805 1.059760 0.146469
0.193384 0.761017 0.005047
0.193384 2.636017 0.005047
0.134805 1.642083 0.146469
0.134805 2.806727 0.146469
-0.006616 1.183504 0.205047
-0.006616 1.748149 0.205047
-0.006616 2.877438 0.205047
-0.148038 1.642082 0.146469
-0.148038 1.059760 0.146469
-0.148038 2.806727 0.146469
-0.206616 1.386017 0.005047
-0.206616 0.761017 0.005047
-0.206616 2.636017 0.005047
-0.148038 0.812273 -0.136374
-0.148038 1.429951 -0.136374
-0.148038 2.665306 -0.136374
0.134805 0.812273 -0.136374
0.134805 1.429951 -0.136374
0.134805 2.665306 -0.136374
-0.006616 0.833504 -0.194953
-0.006616 1.448149 -0.194953
-0.006616 2.677438 -0.194953
-0.206616 -3.399516 -3.530486
-0.148038 -2.425988 -2.756958
-0.206616 -2.515633 -2.646603
-0.148038 -1.552460 -1.883430
-0.206616 -1.631750 -1.762719
-0.148038 -0.678932 -1.009902
-0.148038 -2.675988 -2.606958
-0.148038 -1.028932 -0.959902
-0.148038 -1.852460 -1.783430
-0.006616 -2.742409 -2.590537
-0.006616 -1.145353 -0.993481
-0.006616 -1.943881 -1.792009
0.134805 -2.675988 -2.606958
0.134805 -3.499516 -3.430486
0.134805 -1.852460 -1.783430
0.193384 -2.515633 -2.646603
0.193384 -3.399516 -3.530486
0.193384 -1.631750 -1.762719
0.134805 -1.028932 -0.959902
0.134805 -2.425988 -2.756958
0.134805 -3.299516 -3.630486
0.134805 -1.552460 -1.883430
0.134805 -0.678932 -1.009902
-0.006616 -2.388857 -2.802669
-0.006616 -3.258095 -3.671907
-0.006616 -1.519618 -1.933430
-0.006616 -0.650379 -1.064191
-0.206616 -4.863982 0.005047
-0.148038 -3.699337 -0.136374
-0.206616 -3.613982 0.005047
-0.148038 -2.534693 -0.136374
-0.206616 -2.363983 0.005047
-0.148038 -1.370049 -0.136374
-0.148038 -3.628627 0.146469
-0.148038 -2.393272 0.146469
-0.148038 -1.157917 0.146469
-0.006616 -3.634693 0.205047
-0.006616 -4.863982 0.205047
-0.006616 -2.405404 0.205047
-0.006616 -1.176115 0.205047
0.134805 -3.628627 0.146469
0.134805 -2.393272 0.146469
0.193384 -4.863982 0.005047
0.193384 -3.613982 0.005047
0.193384 -2.363983 0.005047
0.134805 -1.157917 0.146469
0.134805 -3.699337 -0.136374
0.134805 -4.863982 -0.136374
0.134805 -2.534693 -0.136374
0.134805 -1.370049 -0.136374
-0.006616 -3.734693 -0.194953
-0.006616 -4.863982 -0.194953
-0.006616 -2.605404 -0.194953
-0.006616 -1.476115 -0.194953
0.193384 1.019900 0.888931
0.134805 0.514203 0.583233
0.193384 0.577959 0.446989
0.193384 1.903784 1.772814
0.134805 0.950966 1.019997
0.134805 1.824494 1.893525
-0.006616 0.487794 0.639667
-0.006616 0.922413 1.074286
-0.006616 1.791652 1.943525
-0.148038 0.950966 1.019997
-0.148038 0.514202 0.583233
-0.148038 1.824494 1.893525
-0.206616 1.019900 0.888931
-0.206616 0.577959 0.446989
-0.206616 1.903784 1.772814
-0.148038 0.889202 0.558233
-0.148038 1.300966 0.969997
-0.148038 2.124494 1.793525
0.134805 0.889202 0.558233
0.134805 1.300966 0.969997
0.134805 2.124494 1.793525
-0.006616 1.018124 0.604311
-0.006616 1.417388 1.003576
-0.006616 2.215916 1.802104
-0.006616 0.618860 0.205047
0.134805 0.477438 0.146469
-0.148038 0.477438 0.146469
0.193384 0.136017 0.005047
-0.206616 0.136017 0.005047
-0.206616 -0.747866 -0.878836
0.193384 -0.747866 -0.878836
-0.206616 -1.113983 0.005047
0.193384 -1.113983 0.005047
3 0 1 2
3 3 4 5
3 6 0 2
3 7 8 1
3 8 9 10
3 10 11 12
3 11 13 12
3 14 15 13
3 15 16 6
3 17 18 19
3 20 17 21
3 22 23 24
3 19 25 26
3 22 21 27
3 28 22 27
3 29 30 28
3 31 29 32
3 25 32 26
3 33 34 35
3 36 37 38
3 39 33 35
3 40 41 34
3 41 7 42
3 42 0 43
3 0 44 43
3 16 45 44
3 45 46 39
3 47 48 49
3 50 47 49
3 51 52 53
3 54 55 48
3 56 53 50
3 57 58 56
3 59 51 57
3 60 59 61
3 62 61 55
3 63 64 65
3 66 67 63
3 26 68 66
3 67 69 64
3 68 70 67
3 32 71 68
3 69 72 73
3 70 74 72
3 71 28 74
3 73 75 76
3 72 77 75
3 74 27 77
3 75 78 76
3 77 79 75
3 27 80 77
3 81 63 65
3 82 66 63
3 83 26 66
3 79 84 78
3 80 85 79
3 21 86 80
3 84 82 81
3 85 83 82
3 86 19 83
3 87 88 38
3 89 90 88
3 91 92 90
3 37 89 87
3 93 91 89
3 94 91 95
3 36 93 37
3 96 95 93
3 97 95 98
3 99 36 100
3 101 96 99
3 101 97 98
3 102 100 103
3 104 99 102
3 104 105 101
3 106 103 107
3 108 102 106
3 109 104 108
3 38 110 111
3 88 112 110
3 90 113 112
3 110 107 111
3 112 106 110
3 113 108 112
3 114 115 5
3 116 117 115
3 118 119 117
3 120 114 4
3 121 116 120
3 122 118 121
3 123 4 124
3 125 120 123
3 126 121 125
3 3 123 124
3 127 125 123
3 128 126 125
3 129 127 3
3 130 128 127
3 131 132 128
3 133 129 134
3 135 130 133
3 136 131 135
3 5 137 138
3 115 139 137
3 117 140 139
3 137 134 138
3 139 133 137
3 140 135 139
3 141 142 143
3 144 145 141
3 55 146 144
3 145 147 142
3 146 148 145
3 61 149 146
3 147 150 151
3 148 152 150
3 149 57 152
3 151 153 154
3 150 155 153
3 152 56 155
3 153 156 154
3 155 157 153
3 155 50 158
3 159 141 143
3 160 144 141
3 48 144 161
3 157 162 156
3 158 163 157
3 158 49 164
3 162 160 159
3 163 161 160
3 49 161 164
3 165 159 166
3 156 165 167
3 166 143 168
3 154 167 169
3 14 154 169
3 11 151 14
3 142 11 9
3 143 9 168
3 33 81 40
3 78 33 46
3 40 65 168
3 76 46 169
3 167 76 169
3 165 73 167
3 64 165 166
3 65 166 168
3 170 39 92
3 44 170 94
3 43 94 97
3 105 43 97
3 171 42 105
3 34 171 109
3 92 35 113
3 35 109 113
3 172 6 119
3 13 172 122
3 12 122 126
3 132 12 126
3 173 10 132
3 1 173 136
3 119 2 140
3 2 136 140
3 0 7 1
3 5 138 134
3 134 129 3
3 3 124 4
3 4 114 5
3 5 134 3
3 6 16 0
3 7 168 8
3 8 168 9
3 10 9 11
3 11 14 13
3 14 169 15
3 15 169 16
3 17 24 18
3 20 24 17
3 25 18 24
3 24 20 22
3 22 30 23
3 23 31 25
3 25 24 23
3 19 18 25
3 22 20 21
3 28 30 22
3 29 23 30
3 31 23 29
3 25 31 32
3 33 40 34
3 38 111 36
3 107 103 100
3 100 36 111
3 37 87 38
3 111 107 100
3 39 46 33
3 40 168 41
3 41 168 7
3 42 7 0
3 0 16 44
3 16 169 45
3 45 169 46
3 47 54 48
3 50 53 47
3 62 54 60
3 47 53 52
3 58 51 53
3 52 60 47
3 54 47 60
3 54 62 55
3 56 58 53
3 57 51 58
3 59 52 51
3 60 52 59
3 62 60 61
3 63 67 64
3 66 68 67
3 26 32 68
3 67 70 69
3 68 71 70
3 32 29 71
3 69 70 72
3 70 71 74
3 71 29 28
3 73 72 75
3 72 74 77
3 74 28 27
3 75 79 78
3 77 80 79
3 27 21 80
3 81 82 63
3 82 83 66
3 83 19 26
3 79 85 84
3 80 86 85
3 21 17 86
3 84 85 82
3 85 86 83
3 86 17 19
3 87 89 88
3 89 91 90
3 91 170 92
3 37 93 89
3 93 95 91
3 94 170 91
3 36 96 93
3 96 98 95
3 97 94 95
3 99 96 36
3 101 98 96
3 101 105 97
3 102 99 100
3 104 101 99
3 104 171 105
3 106 102 103
3 108 104 102
3 109 171 104
3 38 88 110
3 88 90 112
3 90 92 113
3 110 106 107
3 112 108 106
3 113 109 108
3 114 116 115
3 116 118 117
3 118 172 119
3 120 116 114
3 121 118 116
3 122 172 118
3 123 120 4
3 125 121 120
3 126 122 121
3 3 127 123
3 127 128 125
3 128 132 126
3 129 130 127
3 130 131 128
3 131 173 132
3 133 130 129
3 135 131 130
3 136 173 131
3 5 115 137
3 115 117 139
3 117 119 140
3 137 133 134
3 139 135 133
3 140 136 135
3 141 145 142
3 144 146 145
3 55 61 146
3 145 148 147
3 146 149 148
3 61 59 149
3 147 148 150
3 148 149 152
3 149 59 57
3 151 150 153
3 150 152 155
3 152 57 56
3 153 157 156
3 155 158 157
3 155 56 50
3 159 160 141
3 160 161 144
3 48 55 144
3 157 163 162
3 158 164 163
3 158 50 49
3 162 163 160
3 163 164 161
3 49 48 161
3 165 162 159
3 156 162 165
3 166 159 143
3 154 156 167
3 14 151 154
3 11 147 151
3 142 147 11
3 143 142 9
3 33 84 81
3 78 84 33
3 40 81 65
3 76 78 46
3 167 73 76
3 165 69 73
3 64 69 165
3 65 64 166
3 170 45 39
3 44 45 170
3 43 44 94
3 105 42 43
3 171 41 42
3 34 41 171
3 92 39 35
3 35 34 109
3 172 15 6
3 13 15 172
3 12 13 122
3 132 10 12
3 173 8 10
3 1 8 173
3 119 6 2
3 2 1 136
