ply
format ascii 1.0
comment Created by Blender 2.79 (sub 0) - www.blender.org, source file: 'TreeObjects.blend'
element vertex 166
property float x
property float y
property float z
property uchar red
property uchar green
property uchar blue
element face 304
property list uchar uint vertex_indices
end_header
0.610992 0.000000 -0.237093 0 0 0
0.512215 -0.166421 -0.166421 255 255 255
0.512215 0.000000 -0.221894 255 255 255
0.512215 0.166421 -0.166421 255 255 255
0.610992 0.177819 -0.177819 0 0 0
0.669937 0.000000 -0.237093 1 1 1
0.610992 -0.177819 -0.177819 4 4 4
0.000000 0.000000 0.115505 255 255 255
0.140289 -0.140031 0.112661 255 255 255
0.141197 0.000000 0.130704 255 255 255
0.000000 0.070463 0.178365 255 255 255
-0.086629 0.000000 0.086629 255 255 255
0.000000 -0.142428 0.132882 255 255 255
-0.132882 -0.142428 0.000000 255 255 255
-0.115505 0.000000 0.000000 255 255 255
-0.115505 0.115505 0.000000 255 255 255
-0.086629 0.000000 -0.086629 255 255 255
0.000000 -0.142428 -0.132882 255 255 255
0.000000 0.000000 -0.115505 255 255 255
0.000000 0.115505 -0.115505 255 255 255
0.131948 0.122801 -0.104320 255 255 255
0.141197 0.000000 -0.130704 255 255 255
0.140289 -0.140031 -0.112661 255 255 255
0.000000 -0.660668 -0.254517 0 0 0
-0.177856 -0.530793 -0.177856 255 255 255
0.000000 -0.530793 -0.237141 255 255 255
0.177856 -0.530793 -0.177856 255 255 255
0.190888 -0.660668 -0.190888 0 0 0
0.000000 -0.759436 -0.254517 0 0 0
-0.190888 -0.660668 -0.190888 0 0 0
0.610992 0.000000 0.237093 0 0 0
0.512215 0.166421 0.166421 255 255 255
0.512215 0.000000 0.221894 255 255 255
0.512215 -0.166421 0.166421 255 255 255
0.610992 -0.177819 0.177819 0 0 0
0.669937 0.000000 0.237093 0 0 0
0.610992 0.177819 0.177819 0 0 0
-0.086629 0.231011 -0.086629 255 255 255
-0.115505 0.231011 0.000000 255 255 255
-0.104784 0.107746 0.137254 255 255 255
-0.131672 0.231011 0.149488 255 255 255
-0.112094 0.370654 0.144565 255 255 255
-0.130735 0.372107 0.000000 255 255 255
0.131672 0.231011 0.149488 255 255 255
0.170073 0.159580 0.000000 255 255 255
0.115505 0.231011 0.000000 255 255 255
0.086629 0.231011 -0.086629 255 255 255
0.130735 0.372107 0.000000 255 255 255
0.112094 0.370654 0.144565 255 255 255
0.000000 0.231011 -0.115505 255 255 255
0.000000 0.372107 -0.130735 255 255 255
-0.237341 0.879978 0.000000 0 0 0
-0.166584 0.752214 -0.166584 255 255 255
-0.222112 0.752214 0.000000 255 255 255
-0.166584 0.752214 0.166584 255 255 255
-0.178006 0.879978 0.178006 0 0 0
-0.237341 0.977706 0.000000 0 0 0
-0.178006 0.879978 -0.178006 12 12 12
0.237341 0.879978 0.000000 0 0 0
0.166584 0.752214 0.166584 255 255 255
0.222112 0.752214 0.000000 255 255 255
0.166584 0.752214 -0.166584 255 255 255
0.178006 0.879978 -0.178006 0 0 0
0.237341 0.977706 0.000000 0 0 0
0.178006 0.879978 0.178006 0 0 0
0.000000 0.879978 -0.237341 0 0 0
0.000000 0.752214 -0.222112 255 255 255
0.000000 0.977706 -0.237341 0 0 0
0.000000 0.879978 0.237341 15 15 15
0.000000 0.752214 0.222112 255 255 255
0.000000 0.977706 0.237341 1 1 1
0.000000 -0.660668 0.254517 6 6 6
0.177856 -0.530793 0.177856 255 255 255
0.000000 -0.530793 0.237141 255 255 255
-0.177856 -0.530793 0.177856 255 255 255
-0.190888 -0.660668 0.190888 0 0 0
0.000000 -0.759436 0.254517 0 0 0
0.190888 -0.660668 0.190888 23 23 23
0.254517 -0.660668 0.000000 0 0 0
0.237141 -0.530793 0.000000 255 255 255
0.254517 -0.759436 0.000000 0 0 0
-0.254517 -0.660668 0.000000 0 0 0
-0.237141 -0.530793 0.000000 255 255 255
-0.254517 -0.759436 0.000000 0 0 0
0.610992 0.237093 0.000000 0 0 0
0.512215 0.221894 0.000000 255 255 255
0.669937 0.237093 0.000000 0 0 0
0.610992 -0.237093 0.000000 0 0 0
0.512215 -0.221894 0.000000 255 255 255
0.669937 -0.237093 0.000000 0 0 0
0.000000 -0.013823 0.693443 0 0 0
-0.171501 0.059510 0.574285 255 255 255
0.000000 0.002343 0.574285 255 255 255
0.171501 0.059510 0.574285 254 254 254
0.183626 0.047385 0.693443 0 0 0
0.000000 -0.013823 0.768509 0 0 0
-0.183626 0.047385 0.693443 3 3 3
0.244834 0.231011 0.693443 5 5 5
0.228668 0.231011 0.574285 255 255 255
0.171501 0.402512 0.574285 255 255 255
0.183626 0.414636 0.693443 0 0 0
0.244834 0.231011 0.768509 0 0 0
-0.244834 0.231011 0.693443 0 0 0
-0.171501 0.402512 0.574285 255 255 255
-0.228668 0.231011 0.574285 255 255 255
-0.244834 0.231011 0.768509 0 0 0
-0.183626 0.414636 0.693443 0 0 0
0.000000 0.475845 0.693443 0 0 0
0.000000 0.459679 0.574285 255 255 255
0.000000 0.475845 0.768509 0 0 0
0.333776 -0.132224 0.132224 255 255 255
0.187450 -0.186503 0.000000 255 255 255
0.333776 -0.176299 0.000000 255 255 255
0.333776 -0.132224 -0.132224 255 255 255
0.333776 0.132224 -0.132224 255 255 255
0.333776 0.176299 0.000000 255 255 255
0.333776 0.132224 0.132224 255 255 255
0.333776 0.000000 0.176299 255 255 255
0.333776 0.000000 -0.176299 255 255 255
-0.185011 -0.338703 0.000000 255 255 255
-0.099661 -0.142428 0.099661 255 255 255
-0.099661 -0.142428 -0.099661 255 255 255
-0.138759 -0.338703 -0.138759 255 255 255
-0.138759 -0.338703 0.138759 255 255 255
0.138759 -0.338703 -0.138759 255 255 255
0.185011 -0.338703 0.000000 255 255 255
0.138759 -0.338703 0.138759 255 255 255
0.000000 -0.338703 0.185011 255 255 255
0.000000 -0.338703 -0.185011 255 255 255
-0.132318 0.564383 0.132318 255 255 255
0.000000 0.417149 0.193594 255 255 255
0.000000 0.564383 0.176423 255 255 255
0.132318 0.564383 0.132318 255 255 255
0.000000 0.564383 -0.176423 255 255 255
0.098051 0.372107 -0.098051 255 255 255
-0.098051 0.372107 -0.098051 255 255 255
-0.132318 0.564383 -0.132318 255 255 255
0.132318 0.564383 -0.132318 255 255 255
0.176423 0.564383 0.000000 255 255 255
-0.176423 0.564383 0.000000 255 255 255
0.135127 0.366138 0.366942 255 255 255
0.000000 0.411181 0.366942 255 255 255
-0.135127 0.366138 0.366942 255 255 255
-0.180170 0.231011 0.366942 255 255 255
-0.135127 0.095884 0.366942 255 255 255
0.135127 0.095884 0.366942 255 255 255
0.180170 0.231011 0.366942 255 255 255
0.000000 0.050841 0.366942 255 255 255
0.669937 0.177819 -0.177819 0 0 0
0.669937 -0.177819 -0.177819 0 0 0
0.132312 0.115183 0.135675 255 255 255
-0.086629 0.115505 -0.086629 255 255 255
0.190888 -0.759436 -0.190888 0 0 0
-0.190888 -0.759436 -0.190888 0 0 0
0.669937 -0.177819 0.177819 0 0 0
0.669937 0.177819 0.177819 0 0 0
-0.178006 0.977706 0.178006 0 0 0
-0.178006 0.977706 -0.178006 0 0 0
0.178006 0.977706 -0.178006 0 0 0
0.178006 0.977706 0.178006 0 0 0
-0.190888 -0.759436 0.190888 0 0 0
0.190888 -0.759436 0.190888 0 0 0
0.183626 0.047385 0.768509 0 0 0
-0.183626 0.047385 0.768509 0 0 0
0.183626 0.414636 0.768509 0 0 0
-0.183626 0.414636 0.768509 0 0 0
3 0 1 2
3 0 3 4
3 4 5 0
3 5 6 0
3 7 8 9
3 9 10 7
3 10 11 7
3 11 12 7
3 13 11 14
3 11 15 14
3 15 16 14
3 16 13 14
3 17 16 18
3 16 19 18
3 18 20 21
3 18 22 17
3 23 24 25
3 23 26 27
3 27 28 23
3 28 29 23
3 30 31 32
3 30 33 34
3 34 35 30
3 35 36 30
3 37 15 38
3 38 39 40
3 38 41 42
3 42 37 38
3 43 44 45
3 44 46 45
3 46 47 45
3 45 48 43
3 46 19 49
3 19 37 49
3 37 50 49
3 50 46 49
3 51 52 53
3 51 54 55
3 55 56 51
3 56 57 51
3 58 59 60
3 58 61 62
3 62 63 58
3 63 64 58
3 65 61 66
3 65 52 57
3 57 67 65
3 67 62 65
3 68 54 69
3 68 59 64
3 64 70 68
3 70 55 68
3 71 72 73
3 71 74 75
3 75 76 71
3 76 77 71
3 78 26 79
3 78 72 77
3 77 80 78
3 80 27 78
3 81 74 82
3 81 24 29
3 29 83 81
3 83 75 81
3 84 3 85
3 84 31 36
3 36 86 84
3 86 4 84
3 87 33 88
3 87 1 6
3 6 89 87
3 89 34 87
3 90 91 92
3 90 93 94
3 94 95 90
3 95 96 90
3 97 93 98
3 97 99 100
3 100 101 97
3 101 94 97
3 102 103 104
3 102 91 96
3 96 105 102
3 105 106 102
3 107 99 108
3 107 103 106
3 106 109 107
3 109 100 107
3 110 111 112
3 111 113 112
3 113 88 112
3 88 110 112
3 114 44 115
3 44 116 115
3 116 85 115
3 85 114 115
3 116 9 117
3 9 110 117
3 110 32 117
3 32 116 117
3 113 21 118
3 21 114 118
3 114 2 118
3 2 113 118
3 119 120 13
3 119 121 122
3 122 82 119
3 82 123 119
3 124 111 125
3 111 126 125
3 126 79 125
3 79 124 125
3 126 12 127
3 127 120 123
3 123 73 127
3 73 126 127
3 128 121 17
3 17 124 128
3 124 25 128
3 25 122 128
3 129 130 131
3 130 132 131
3 132 69 131
3 69 129 131
3 133 134 50
3 133 135 136
3 136 66 133
3 66 137 133
3 132 47 138
3 138 134 137
3 137 60 138
3 60 132 138
3 139 135 42
3 42 129 139
3 129 53 139
3 53 136 139
3 140 130 141
3 130 142 141
3 142 108 141
3 108 140 141
3 142 40 143
3 40 144 143
3 144 104 143
3 104 142 143
3 145 43 146
3 43 140 146
3 140 98 146
3 98 145 146
3 144 10 147
3 10 145 147
3 145 92 147
3 92 144 147
3 0 6 1
3 0 2 3
3 4 148 5
3 5 149 6
3 7 12 8
3 9 150 10
3 10 39 11
3 11 120 12
3 13 120 11
3 11 39 15
3 15 151 16
3 16 121 13
3 17 121 16
3 16 151 19
3 18 19 20
3 18 21 22
3 23 29 24
3 23 25 26
3 27 152 28
3 28 153 29
3 30 36 31
3 30 32 33
3 34 154 35
3 35 155 36
3 37 151 15
3 38 15 39
3 38 40 41
3 42 135 37
3 43 150 44
3 44 20 46
3 46 134 47
3 45 47 48
3 46 20 19
3 19 151 37
3 37 135 50
3 50 134 46
3 51 57 52
3 51 53 54
3 55 156 56
3 56 157 57
3 58 64 59
3 58 60 61
3 62 158 63
3 63 159 64
3 65 62 61
3 65 66 52
3 57 157 67
3 67 158 62
3 68 55 54
3 68 69 59
3 64 159 70
3 70 156 55
3 71 77 72
3 71 73 74
3 75 160 76
3 76 161 77
3 78 27 26
3 78 79 72
3 77 161 80
3 80 152 27
3 81 75 74
3 81 82 24
3 29 153 83
3 83 160 75
3 84 4 3
3 84 85 31
3 36 155 86
3 86 148 4
3 87 34 33
3 87 88 1
3 6 149 89
3 89 154 34
3 90 96 91
3 90 92 93
3 94 162 95
3 95 163 96
3 97 94 93
3 97 98 99
3 100 164 101
3 101 162 94
3 102 106 103
3 102 104 91
3 96 163 105
3 105 165 106
3 107 100 99
3 107 108 103
3 106 165 109
3 109 164 100
3 110 8 111
3 111 22 113
3 113 1 88
3 88 33 110
3 114 20 44
3 44 150 116
3 116 31 85
3 85 3 114
3 116 150 9
3 9 8 110
3 110 33 32
3 32 31 116
3 113 22 21
3 21 20 114
3 114 3 2
3 2 1 113
3 119 123 120
3 119 13 121
3 122 24 82
3 82 74 123
3 124 22 111
3 111 8 126
3 126 72 79
3 79 26 124
3 126 8 12
3 127 12 120
3 123 74 73
3 73 72 126
3 128 122 121
3 17 22 124
3 124 26 25
3 25 24 122
3 129 41 130
3 130 48 132
3 132 59 69
3 69 54 129
3 133 137 134
3 133 50 135
3 136 52 66
3 66 61 137
3 132 48 47
3 138 47 134
3 137 61 60
3 60 59 132
3 139 136 135
3 42 41 129
3 129 54 53
3 53 52 136
3 140 48 130
3 130 41 142
3 142 103 108
3 108 99 140
3 142 41 40
3 40 39 144
3 144 91 104
3 104 103 142
3 145 150 43
3 43 48 140
3 140 99 98
3 98 93 145
3 144 39 10
3 10 150 145
3 145 93 92
3 92 91 144
