ply
format ascii 1.0
comment Created by Blender 2.79 (sub 0) - www.blender.org, source file: ''
element vertex 215
property float x
property float y
property float z
element face 408
property list uchar uint vertex_indices
end_header
-0.040000 -0.180000 -0.000000
-0.030000 -0.070000 0.030000
-0.040000 -0.070000 -0.000000
-0.055000 0.012500 -0.000000
-0.030000 -0.070000 -0.030000
-0.030000 -0.180000 -0.030000
0.000000 -0.180000 -0.040000
0.000000 -0.070000 -0.040000
0.000000 0.022500 -0.040000
0.030000 -0.070000 -0.030000
0.040000 -0.180000 0.000000
0.040000 -0.070000 0.000000
0.040000 0.022500 0.000000
0.030000 -0.070000 0.030000
-0.000000 -0.620000 0.040000
-0.030000 -0.730000 0.030000
-0.000000 -0.730000 0.040000
-0.000000 -0.840000 0.040000
0.030000 -0.730000 0.030000
0.030000 0.080000 0.030000
0.040000 0.080000 0.000000
0.030000 0.080000 -0.030000
0.040000 0.125000 0.000000
-0.000000 0.080000 0.040000
-0.043200 0.028800 0.033600
-0.000000 0.022500 0.040000
-0.000000 0.125000 0.040000
-0.043200 0.123200 0.033600
-0.045000 0.080000 0.040000
0.000000 0.080000 -0.040000
0.030000 0.022500 -0.030000
-0.043200 0.028800 -0.033600
-0.045000 0.080000 -0.040000
-0.043200 0.123200 -0.033600
0.000000 0.125000 -0.040000
-0.460000 0.050000 0.030000
-0.400000 0.080000 0.040000
-0.460000 0.080000 0.040000
-0.400000 0.110000 0.030000
-0.460000 0.110000 0.030000
-0.520000 0.110000 0.030000
-0.520000 0.080000 0.040000
0.030000 0.540000 0.030000
0.040000 0.480000 0.000000
0.040000 0.540000 0.000000
0.030000 0.540000 -0.030000
0.040000 0.600000 0.000000
-0.030000 0.540000 0.030000
-0.000000 0.480000 0.040000
-0.000000 0.540000 0.040000
-0.000000 0.600000 0.040000
0.000000 0.480000 -0.040000
0.000000 0.540000 -0.040000
-0.030000 0.540000 -0.030000
0.000000 0.600000 -0.040000
-0.040000 0.480000 -0.000000
-0.040000 0.540000 -0.000000
-0.030000 0.600000 0.030000
-0.040000 0.600000 -0.000000
-0.460000 0.120000 -0.000000
-0.400000 0.120000 -0.000000
-0.460000 0.110000 -0.030000
-0.520000 0.120000 -0.000000
-0.460000 0.050000 -0.030000
-0.400000 0.040000 -0.000000
-0.460000 0.040000 -0.000000
-0.520000 0.040000 -0.000000
-0.400000 0.080000 -0.040000
-0.460000 0.080000 -0.040000
-0.520000 0.080000 -0.040000
-0.220000 0.080000 -0.040000
-0.160000 0.110000 -0.030000
-0.160000 0.080000 -0.040000
-0.160000 0.050000 -0.030000
-0.220000 0.050000 -0.030000
-0.280000 0.080000 -0.040000
-0.220000 0.110000 -0.030000
-0.160000 0.040000 -0.000000
-0.220000 0.040000 -0.000000
-0.160000 0.050000 0.030000
-0.220000 0.050000 0.030000
-0.280000 0.040000 -0.000000
-0.280000 0.050000 -0.030000
-0.220000 0.120000 -0.000000
-0.160000 0.110000 0.030000
-0.160000 0.120000 -0.000000
-0.280000 0.110000 -0.030000
-0.280000 0.120000 -0.000000
-0.220000 0.110000 0.030000
-0.160000 0.080000 0.040000
-0.220000 0.080000 0.040000
-0.280000 0.080000 0.040000
-0.280000 0.050000 0.030000
-0.000000 -0.180000 0.040000
-0.030000 -0.290000 0.030000
-0.000000 -0.290000 0.040000
-0.000000 -0.400000 0.040000
0.030000 -0.290000 0.030000
0.040000 -0.620000 0.000000
0.030000 -0.510000 -0.030000
0.040000 -0.510000 0.000000
0.040000 -0.400000 0.000000
0.030000 -0.510000 0.030000
0.000000 -0.620000 -0.040000
-0.030000 -0.510000 -0.030000
0.000000 -0.510000 -0.040000
0.000000 -0.400000 -0.040000
-0.040000 -0.620000 -0.000000
-0.030000 -0.510000 0.030000
-0.040000 -0.510000 -0.000000
-0.040000 -0.400000 -0.000000
-0.030000 0.300000 -0.030000
-0.040000 0.240000 -0.000000
-0.040000 0.300000 -0.000000
-0.030000 0.300000 0.030000
-0.040000 0.360000 -0.000000
0.030000 0.300000 -0.030000
0.000000 0.240000 -0.040000
0.000000 0.300000 -0.040000
0.000000 0.360000 -0.040000
-0.000000 0.240000 0.040000
-0.000000 0.300000 0.040000
0.030000 0.300000 0.030000
-0.000000 0.360000 0.040000
0.040000 0.240000 0.000000
0.040000 0.300000 0.000000
0.040000 0.360000 0.000000
-0.100000 0.050000 0.030000
-0.100000 0.080000 0.040000
-0.100000 0.110000 0.030000
-0.055000 0.135000 -0.000000
-0.100000 0.120000 -0.000000
-0.100000 0.110000 -0.030000
-0.100000 0.050000 -0.030000
-0.100000 0.040000 -0.000000
-0.100000 0.080000 -0.040000
-0.340000 0.080000 -0.040000
-0.340000 0.050000 -0.030000
-0.340000 0.110000 -0.030000
-0.340000 0.040000 -0.000000
-0.340000 0.050000 0.030000
-0.340000 0.120000 -0.000000
-0.280000 0.110000 0.030000
-0.400000 0.110000 -0.030000
-0.340000 0.110000 0.030000
-0.340000 0.080000 0.040000
-0.400000 0.050000 0.030000
0.040000 0.180000 0.000000
0.030000 0.125000 0.030000
0.030000 0.125000 -0.030000
0.030000 0.180000 -0.030000
0.030000 0.180000 0.030000
-0.030000 0.180000 0.030000
-0.000000 0.180000 0.040000
0.000000 0.180000 -0.040000
-0.030000 0.180000 -0.030000
-0.040000 0.180000 -0.000000
-0.030000 0.420000 -0.030000
-0.040000 0.420000 -0.000000
-0.030000 0.420000 0.030000
0.030000 0.420000 -0.030000
0.000000 0.420000 -0.040000
-0.030000 0.360000 -0.030000
-0.030000 0.480000 -0.030000
-0.000000 0.420000 0.040000
0.030000 0.420000 0.030000
0.040000 0.420000 0.000000
-0.000000 -0.070000 0.040000
0.030000 0.022500 0.030000
0.030000 -0.290000 -0.030000
0.040000 -0.290000 0.000000
-0.030000 -0.290000 -0.030000
0.000000 -0.290000 -0.040000
-0.040000 -0.290000 -0.000000
-0.040000 -0.840000 -0.000000
-0.040000 -0.730000 -0.000000
-0.030000 -0.730000 -0.030000
-0.030000 -0.840000 -0.030000
0.000000 -0.840000 -0.040000
0.000000 -0.730000 -0.040000
0.030000 -0.730000 -0.030000
0.030000 -0.840000 -0.030000
0.040000 -0.840000 0.000000
0.040000 -0.730000 0.000000
-0.000000 -0.510000 0.040000
-0.030000 -0.180000 0.030000
0.030000 -0.180000 -0.030000
0.030000 -0.180000 0.030000
-0.030000 -0.620000 0.030000
-0.030000 -0.840000 0.030000
0.030000 -0.840000 0.030000
0.030000 -0.620000 0.030000
-0.520000 0.050000 0.030000
0.030000 0.480000 0.030000
0.030000 0.480000 -0.030000
0.030000 0.600000 -0.030000
0.030000 0.600000 0.030000
-0.030000 0.480000 0.030000
-0.030000 0.600000 -0.030000
-0.520000 0.110000 -0.030000
-0.400000 0.050000 -0.030000
-0.520000 0.050000 -0.030000
-0.030000 -0.400000 0.030000
0.030000 -0.400000 0.030000
0.030000 -0.620000 -0.030000
0.030000 -0.400000 -0.030000
-0.030000 -0.620000 -0.030000
-0.030000 -0.400000 -0.030000
-0.030000 0.240000 -0.030000
-0.030000 0.240000 0.030000
-0.030000 0.360000 0.030000
0.030000 0.240000 -0.030000
0.030000 0.360000 -0.030000
0.030000 0.240000 0.030000
0.030000 0.360000 0.030000
3 0 1 2
3 1 3 2
3 3 4 2
3 2 5 0
3 6 4 7
3 4 8 7
3 8 9 7
3 9 6 7
3 10 9 11
3 9 12 11
3 12 13 11
3 13 10 11
3 14 15 16
3 15 17 16
3 17 18 16
3 18 14 16
3 19 12 20
3 12 21 20
3 21 22 20
3 22 19 20
3 23 24 25
3 25 19 23
3 19 26 23
3 23 27 28
3 29 30 8
3 29 31 32
3 29 33 34
3 34 21 29
3 35 36 37
3 37 38 39
3 37 40 41
3 41 35 37
3 42 43 44
3 43 45 44
3 45 46 44
3 46 42 44
3 47 48 49
3 48 42 49
3 42 50 49
3 50 47 49
3 45 51 52
3 51 53 52
3 53 54 52
3 54 45 52
3 53 55 56
3 55 47 56
3 56 57 58
3 58 53 56
3 59 38 60
3 60 61 59
3 61 62 59
3 62 39 59
3 63 64 65
3 64 35 65
3 35 66 65
3 66 63 65
3 61 67 68
3 67 63 68
3 63 69 68
3 69 61 68
3 70 71 72
3 70 73 74
3 74 75 70
3 75 76 70
3 74 77 78
3 78 79 80
3 80 81 78
3 78 82 74
3 83 84 85
3 85 76 83
3 83 86 87
3 87 88 83
3 80 89 90
3 90 84 88
3 88 91 90
3 90 92 80
3 93 94 95
3 94 96 95
3 96 97 95
3 97 93 95
3 98 99 100
3 99 101 100
3 101 102 100
3 102 98 100
3 103 104 105
3 104 106 105
3 106 99 105
3 99 103 105
3 107 108 109
3 108 110 109
3 110 104 109
3 104 107 109
3 111 112 113
3 112 114 113
3 114 115 113
3 115 111 113
3 116 117 118
3 117 111 118
3 111 119 118
3 119 116 118
3 114 120 121
3 120 122 121
3 122 123 121
3 123 114 121
3 122 124 125
3 124 116 125
3 116 126 125
3 126 122 125
3 127 28 128
3 28 129 128
3 129 89 128
3 128 79 127
3 129 130 131
3 130 132 131
3 131 71 85
3 85 129 131
3 133 3 134
3 3 127 134
3 127 77 134
3 134 73 133
3 132 32 135
3 32 133 135
3 133 72 135
3 72 132 135
3 136 86 75
3 75 137 136
3 137 67 136
3 67 138 136
3 137 81 139
3 139 92 140
3 140 64 139
3 64 137 139
3 141 142 87
3 87 138 141
3 141 143 60
3 60 144 141
3 140 91 145
3 145 142 144
3 144 36 145
3 145 146 140
3 147 148 22
3 147 149 150
3 150 124 147
3 124 151 147
3 152 26 153
3 153 148 151
3 151 120 153
3 120 152 153
3 154 149 34
3 34 155 154
3 155 117 154
3 117 150 154
3 155 130 156
3 130 152 156
3 152 112 156
3 112 155 156
3 157 115 158
3 115 159 158
3 159 55 158
3 55 157 158
3 160 119 161
3 161 162 157
3 161 163 51
3 51 160 161
3 159 123 164
3 123 165 164
3 165 48 164
3 48 159 164
3 165 126 166
3 126 160 166
3 160 43 166
3 43 165 166
3 25 1 167
3 1 93 167
3 93 13 167
3 167 168 25
3 101 169 170
3 169 10 170
3 10 97 170
3 97 101 170
3 106 171 172
3 171 6 172
3 6 169 172
3 169 106 172
3 110 94 173
3 94 0 173
3 0 171 173
3 171 110 173
3 174 15 175
3 15 107 175
3 107 176 175
3 175 177 174
3 178 176 179
3 176 103 179
3 103 180 179
3 179 181 178
3 182 180 183
3 180 98 183
3 98 18 183
3 18 182 183
3 96 108 184
3 108 14 184
3 14 102 184
3 102 96 184
3 0 185 1
3 1 24 3
3 3 31 4
3 2 4 5
3 6 5 4
3 4 31 8
3 8 30 9
3 9 186 6
3 10 186 9
3 9 30 12
3 12 168 13
3 13 187 10
3 14 188 15
3 15 189 17
3 17 190 18
3 18 191 14
3 19 168 12
3 12 30 21
3 21 149 22
3 22 148 19
3 23 28 24
3 25 168 19
3 19 148 26
3 23 26 27
3 29 21 30
3 29 8 31
3 29 32 33
3 34 149 21
3 35 146 36
3 37 36 38
3 37 39 40
3 41 192 35
3 42 193 43
3 43 194 45
3 45 195 46
3 46 196 42
3 47 197 48
3 48 193 42
3 42 196 50
3 50 57 47
3 45 194 51
3 51 163 53
3 53 198 54
3 54 195 45
3 53 163 55
3 55 197 47
3 56 47 57
3 58 198 53
3 59 39 38
3 60 143 61
3 61 199 62
3 62 40 39
3 63 200 64
3 64 146 35
3 35 192 66
3 66 201 63
3 61 143 67
3 67 200 63
3 63 201 69
3 69 199 61
3 70 76 71
3 70 72 73
3 74 82 75
3 75 86 76
3 74 73 77
3 78 77 79
3 80 92 81
3 78 81 82
3 83 88 84
3 85 71 76
3 83 76 86
3 87 142 88
3 80 79 89
3 90 89 84
3 88 142 91
3 90 91 92
3 93 185 94
3 94 202 96
3 96 203 97
3 97 187 93
3 98 204 99
3 99 205 101
3 101 203 102
3 102 191 98
3 103 206 104
3 104 207 106
3 106 205 99
3 99 204 103
3 107 188 108
3 108 202 110
3 110 207 104
3 104 206 107
3 111 208 112
3 112 209 114
3 114 210 115
3 115 162 111
3 116 211 117
3 117 208 111
3 111 162 119
3 119 212 116
3 114 209 120
3 120 213 122
3 122 214 123
3 123 210 114
3 122 213 124
3 124 211 116
3 116 212 126
3 126 214 122
3 127 24 28
3 28 27 129
3 129 84 89
3 128 89 79
3 129 27 130
3 130 33 132
3 131 132 71
3 85 84 129
3 133 31 3
3 3 24 127
3 127 79 77
3 134 77 73
3 132 33 32
3 32 31 133
3 133 73 72
3 72 71 132
3 136 138 86
3 75 82 137
3 137 200 67
3 67 143 138
3 137 82 81
3 139 81 92
3 140 146 64
3 64 200 137
3 141 144 142
3 87 86 138
3 141 138 143
3 60 38 144
3 140 92 91
3 145 91 142
3 144 38 36
3 145 36 146
3 147 151 148
3 147 22 149
3 150 211 124
3 124 213 151
3 152 27 26
3 153 26 148
3 151 213 120
3 120 209 152
3 154 150 149
3 34 33 155
3 155 208 117
3 117 211 150
3 155 33 130
3 130 27 152
3 152 209 112
3 112 208 155
3 157 162 115
3 115 210 159
3 159 197 55
3 55 163 157
3 160 212 119
3 161 119 162
3 161 157 163
3 51 194 160
3 159 210 123
3 123 214 165
3 165 193 48
3 48 197 159
3 165 214 126
3 126 212 160
3 160 194 43
3 43 193 165
3 25 24 1
3 1 185 93
3 93 187 13
3 167 13 168
3 101 205 169
3 169 186 10
3 10 187 97
3 97 203 101
3 106 207 171
3 171 5 6
3 6 186 169
3 169 205 106
3 110 202 94
3 94 185 0
3 0 5 171
3 171 207 110
3 174 189 15
3 15 188 107
3 107 206 176
3 175 176 177
3 178 177 176
3 176 206 103
3 103 204 180
3 179 180 181
3 182 181 180
3 180 204 98
3 98 191 18
3 18 190 182
3 96 202 108
3 108 188 14
3 14 191 102
3 102 203 96
